<svg width="25" height="24" viewBox="0 0 25 24" fill="none" xmlns="http://www.w3.org/2000/svg">
<path fill-rule="evenodd" clip-rule="evenodd" d="M12.0763 1.45064C12.3106 1.21632 12.6905 1.21632 12.9249 1.45064L17.4249 5.95064C17.6592 6.18495 17.6592 6.56485 17.4249 6.79917C17.1905 7.03348 16.8106 7.03348 16.5763 6.79917L13.1004 3.32323V13.1249C13.1004 13.4563 12.8318 13.7249 12.5004 13.7249C12.169 13.7249 11.9004 13.4563 11.9004 13.1249V3.32363L8.42485 6.79917C8.19054 7.03348 7.81064 7.03348 7.57632 6.79917C7.34201 6.56485 7.34201 6.18495 7.57632 5.95064L12.0763 1.45064ZM4.62539 11.3499C4.33544 11.3499 4.10039 11.585 4.10039 11.8749V20.9999C4.10039 21.2899 4.33544 21.5249 4.62539 21.5249H20.3754C20.6653 21.5249 20.9004 21.2899 20.9004 20.9999V11.8749C20.9004 11.585 20.6653 11.3499 20.3754 11.3499H18.1254C17.794 11.3499 17.5254 11.0813 17.5254 10.7499C17.5254 10.4185 17.794 10.1499 18.1254 10.1499H20.3754C21.3281 10.1499 22.1004 10.9222 22.1004 11.8749V20.9999C22.1004 21.9526 21.3281 22.7249 20.3754 22.7249H4.62539C3.6727 22.7249 2.90039 21.9526 2.90039 20.9999V11.8749C2.90039 10.9222 3.6727 10.1499 4.62539 10.1499H6.87539C7.20676 10.1499 7.47539 10.4185 7.47539 10.7499C7.47539 11.0813 7.20676 11.3499 6.87539 11.3499H4.62539Z" fill="#101010"/>
</svg>
