<svg width="25" height="24" viewBox="0 0 25 24" fill="none" xmlns="http://www.w3.org/2000/svg">
<path fill-rule="evenodd" clip-rule="evenodd" d="M2.79961 12.2448C2.79961 7.34501 6.77177 3.37285 11.6716 3.37285C12.9839 3.37285 14.2281 3.65738 15.3472 4.16755C15.6487 4.305 16.0046 4.17199 16.142 3.87047C16.2795 3.56895 16.1465 3.21309 15.845 3.07565C14.5727 2.49567 13.159 2.17285 11.6716 2.17285C6.10903 2.17285 1.59961 6.68227 1.59961 12.2448C1.59961 17.8074 6.10903 22.3168 11.6716 22.3168C17.2341 22.3168 21.7436 17.8074 21.7436 12.2448C21.7436 11.7966 21.7142 11.3548 21.6573 10.9215C21.6142 10.593 21.3129 10.3616 20.9843 10.4048C20.6558 10.4479 20.4244 10.7492 20.4676 11.0778C20.5177 11.4594 20.5436 11.8489 20.5436 12.2448C20.5436 17.1446 16.5714 21.1168 11.6716 21.1168C6.77177 21.1168 2.79961 17.1446 2.79961 12.2448ZM15.1939 9.76541C15.1939 9.22592 14.7566 8.78857 14.2171 8.78857C13.6776 8.78857 13.2402 9.22592 13.2402 9.76541C13.2402 10.3049 13.6776 10.7422 14.2171 10.7422C14.7566 10.7422 15.1939 10.3049 15.1939 9.76541ZM9.12722 8.78857C9.66671 8.78857 10.1041 9.22592 10.1041 9.76541C10.1041 10.3049 9.66671 10.7422 9.12722 10.7422C8.58774 10.7422 8.15039 10.3049 8.15039 9.76541C8.15039 9.22592 8.58774 8.78857 9.12722 8.78857ZM8.89812 13.3219C8.84412 12.995 8.5353 12.7737 8.20836 12.8278C7.88142 12.8818 7.66016 13.1906 7.71417 13.5175C7.88511 14.5523 8.34031 15.3479 9.03682 15.8941C9.72237 16.4317 10.5878 16.6858 11.5144 16.7503L11.5352 16.7517H11.5561C12.5512 16.7517 13.441 16.5026 14.1292 15.9383C14.8213 15.3708 15.2416 14.5402 15.3991 13.5104C15.4492 13.1829 15.2242 12.8767 14.8967 12.8266C14.5691 12.7765 14.2629 13.0015 14.2128 13.329C14.0895 14.1355 13.7822 14.6709 13.3683 15.0104C12.9542 15.35 12.3661 15.5483 11.5768 15.5517C10.8161 15.4959 10.2135 15.2919 9.77734 14.9498C9.34813 14.6132 9.02696 14.1018 8.89812 13.3219ZM19.0957 3.09976C19.0957 2.76839 19.3643 2.49976 19.6957 2.49976C20.0271 2.49976 20.2957 2.76839 20.2957 3.09976V5.29976H22.4957C22.8271 5.29976 23.0957 5.56838 23.0957 5.89976C23.0957 6.23113 22.8271 6.49976 22.4957 6.49976H20.2957V8.89976C20.2957 9.23113 20.0271 9.49976 19.6957 9.49976C19.3643 9.49976 19.0957 9.23113 19.0957 8.89976V6.49976H16.6957C16.3643 6.49976 16.0957 6.23113 16.0957 5.89976C16.0957 5.56838 16.3643 5.29976 16.6957 5.29976H19.0957V3.09976Z" fill="#181818"/>
</svg>
